<?xml version="1.0" encoding="utf-8"?>
<!-- Generator: Adobe Illustrator 19.2.1, SVG Export Plug-In . SVG Version: 6.00 Build 0)  -->
<svg version="1.1" id="Layer_1" xmlns="http://www.w3.org/2000/svg" xmlns:xlink="http://www.w3.org/1999/xlink" x="0px" y="0px"
	 viewBox="0 0 30 46" style="enable-background:new 0 0 30 46;" xml:space="preserve">
<style type="text/css">
	.st0{fill:none;stroke:#333333;stroke-width:2;stroke-linecap:round;stroke-miterlimit:10;}
	.st1{fill:none;stroke:#333333;stroke-width:2;stroke-linejoin:round;stroke-miterlimit:10;}
	.st2{fill:none;stroke:#333333;stroke-width:2;stroke-miterlimit:10;}
</style>
<path class="st0" d="M8,36v4c0,1.1,0.9,2,2,2h10c1.1,0,2-0.9,2-2v-4H8z"/>
<path class="st1" d="M22,36c0-1,0-4,0-6c0-5.4,7-5.6,7-15c0-7.7-6.3-14-14-14S1,7.3,1,15c0,9.6,7,10.7,7,15c0,1.3,0,6,0,6"/>
<path class="st0" d="M18,42c0,1.7-1.3,3-3,3c-1.7,0-3-1.3-3-3"/>
<line class="st2" x1="15" y1="20" x2="15" y2="33"/>
<polyline class="st0" points="11,16 15,20 19,16 "/>
</svg>
