<?xml version="1.0" encoding="utf-8"?>
<!-- Generator: Adobe Illustrator 18.1.1, SVG Export Plug-In . SVG Version: 6.00 Build 0)  -->
<svg version="1.1" id="Layer_1" xmlns="http://www.w3.org/2000/svg" xmlns:xlink="http://www.w3.org/1999/xlink" x="0px" y="0px"
	 viewBox="-591 377 40 40" enable-background="new -591 377 40 40" xml:space="preserve">
<g id="calendar" display="none">
	<path display="inline" fill="#333333" d="M-554.1,381.7h-5v-2.4c0-0.6-0.4-1-1-1c-0.6,0-1,0.4-1,1v2.4h-19.8v-2.4c0-0.6-0.4-1-1-1
		s-1,0.4-1,1v2.4h-5c-1.7,0-3,1.3-3,3v28.1c0,1.7,1.3,3,3,3h33.8c1.7,0,3-1.3,3-3v-28.1C-551.1,383-552.5,381.7-554.1,381.7z
		 M-587.9,383.7h5v3.8c0,0.6,0.4,1,1,1s1-0.4,1-1v-3.8h19.8v3.8c0,0.6,0.4,1,1,1c0.6,0,1-0.4,1-1v-3.8h5c0.6,0,1,0.4,1,1v5.2h-35.8
		v-5.2C-588.9,384.1-588.4,383.7-587.9,383.7z M-554.1,413.7h-33.8c-0.6,0-1-0.4-1-1v-20.9h35.8v20.9
		C-553.1,413.3-553.6,413.7-554.1,413.7z"/>
</g>
<path fill="#333333" d="M-553.9,379.9c-1.6-1.6-4.1-1.6-5.6,0c0,0-0.4,0.4-0.6,0.6c0,0,0,0,0,0l-27,27l-2.1,7.7l7.7-2.1l27-27
	c0,0,0,0,0,0c0.2-0.2,0.6-0.6,0.6-0.6C-552.3,384-552.3,381.5-553.9,379.9z M-582.6,411.4L-582.6,411.4l-2.9-2.8l0-0.1l26.6-26.6
	l2.9,2.9L-582.6,411.4z"/>
</svg>
