<svg xmlns="http://www.w3.org/2000/svg" xmlns:xlink="http://www.w3.org/1999/xlink" viewBox="0 0 33.6 33.6"><defs><style>.cls-1{fill:url(#linear-gradient);}</style><linearGradient id="linear-gradient" x1="265.42" y1="265.4" x2="-23.66" y2="-23.69" gradientUnits="userSpaceOnUse"><stop offset="0" stop-color="#333333"/><stop offset="0.46" stop-color="#333333"/><stop offset="0.85" stop-color="#333333"/></linearGradient></defs><title>icon-w2s-lifesaver</title><g id="Layer_2" data-name="Layer 2"><g id="blue2"><path class="cls-1" d="M13.37,32.52c.41,1,2.68,1.08,3.43,1.08s3-.09,3.43-1.08A16.14,16.14,0,0,0,32.52,20.23c1-.41,1.08-2.68,1.08-3.43s-.09-3-1.07-3.43a16,16,0,0,0-12.3-12.3C19.82.09,17.55,0,16.8,0s-3,.09-3.43,1.08A16.14,16.14,0,0,0,1.08,13.37C.09,13.78,0,16.05,0,16.8s.09,3,1.08,3.43A16.17,16.17,0,0,0,13.37,32.52ZM7.46,14.74c-.06.29-.11.58-.15.88,0,.05,0,.1,0,.15a9.2,9.2,0,0,0,0,2.07c0,.05,0,.1,0,.16,0,.3.09.59.15.88v0H1.68a6.8,6.8,0,0,1-.28-2.1,6.89,6.89,0,0,1,.28-2.08l.12,0H7.47ZM2.53,20.3H7.91a9.61,9.61,0,0,0,5.39,5.39v5.38A14.77,14.77,0,0,1,2.53,20.3Zm6.14-4.24c0-.1,0-.21,0-.31s0-.26.06-.39.05-.27.08-.4l.07-.26c0-.15.08-.31.13-.46a8.2,8.2,0,0,1,5.19-5.19l.47-.14.24-.06.43-.09.33-.05.37,0,.52,0H17l.51,0,.39,0,.32,0,.43.09.24.06.46.13a8.2,8.2,0,0,1,5.19,5.19c0,.15.09.3.13.45l.07.26c0,.13.06.27.08.4s0,.26.06.39,0,.21,0,.31,0,.49,0,.74,0,.5,0,.74,0,.21,0,.31,0,.26-.06.39-.05.27-.08.4l-.07.26c0,.15-.08.31-.13.46a8.2,8.2,0,0,1-5.18,5.18l-.48.14-.23.06-.43.09-.34.05-.36,0-.6,0h-.24l-.61,0-.35,0-.35-.05-.43-.09-.23-.06-.49-.14a8.2,8.2,0,0,1-5.18-5.18c-.05-.15-.09-.3-.13-.46l-.07-.26c0-.13-.06-.27-.08-.4s0-.26-.06-.39,0-.21,0-.31,0-.49,0-.74S8.65,16.3,8.67,16.06Zm6.06,15.87a.67.67,0,0,0,0-.2v-5.6h0q.45.1.92.16l.11,0a9.2,9.2,0,0,0,2.07,0l.13,0c.31,0,.61-.09.91-.15h0v5.64a.68.68,0,0,0,0,.15,6.86,6.86,0,0,1-2.09.28A6.93,6.93,0,0,1,14.74,31.93Zm5.56-.85V25.69a9.61,9.61,0,0,0,5.39-5.39h5.38A14.75,14.75,0,0,1,20.3,31.07Zm6-13.09c0-.05,0-.1,0-.15a9.21,9.21,0,0,0,0-2.07c0-.05,0-.1,0-.15,0-.3-.09-.59-.15-.88v0h5.79a6.8,6.8,0,0,1,.28,2.1,7.06,7.06,0,0,1-.26,2,.67.67,0,0,0-.28.07H26.13v0C26.2,18.58,26.25,18.28,26.28,18Zm4.79-4.69H25.69A9.61,9.61,0,0,0,20.3,7.91V2.53A14.62,14.62,0,0,1,31.07,13.3ZM18.9,1.69V7.47h0c-.29-.06-.58-.11-.88-.15l-.15,0a9.21,9.21,0,0,0-2.07,0l-.15,0c-.3,0-.59.09-.88.15h0V1.93a.68.68,0,0,0,.06-.26,7,7,0,0,1,2-.26A6.81,6.81,0,0,1,18.9,1.69Zm-5.6.84V7.91A9.61,9.61,0,0,0,7.91,13.3H2.53A14.74,14.74,0,0,1,13.3,2.53Z"/></g></g></svg>