<?xml version="1.0" encoding="UTF-8"?>
<svg width="30px" height="30px" viewBox="0 0 30 30" version="1.1" xmlns="http://www.w3.org/2000/svg" xmlns:xlink="http://www.w3.org/1999/xlink">
    <!-- Generator: Sketch 46.2 (44496) - http://www.bohemiancoding.com/sketch -->
    <title>icon-w2s-money</title>
    <desc>Created with Sketch.</desc>
    <defs></defs>
    <g id="Page-1" stroke="none" stroke-width="1" fill="none" fill-rule="evenodd">
        <g id="icon-w2s-money" fill-rule="nonzero" fill="#333333">
            <path d="M14.62,-1.50990331e-16 C6.54820311,0.00552295568 0.00816281722,6.55153248 0.0100038026,14.6233311 C0.0118447879,22.6951296 6.55487038,29.2381552 14.6266689,29.2399962 C22.6984675,29.2418372 29.244477,22.7017969 29.25,14.63 C29.2444844,6.55235986 22.6976401,0.00551563193 14.62,-1.50990331e-16 Z M14.62,27.95 C7.26487141,27.9444781 1.30632111,21.9784681 1.31000167,14.6233383 C1.31368222,7.26820859 7.2782004,1.30816493 14.6333308,1.31000417 C21.9884613,1.31184341 27.9499979,7.27486933 27.95,14.63 C27.9389739,21.9857646 21.9757708,27.9444942 14.62,27.95 Z" id="Shape"></path>
            <path d="M17.84,15 C17.457801,14.7201356 17.0366625,14.4977745 16.59,14.34 C16.1166667,14.1666667 15.6233333,14.0066667 15.11,13.86 L15.11,13.86 L15.11,9.57 C15.5478901,9.57786563 15.978447,9.6837963 16.37,9.88 C16.758983,10.0773834 17.1002442,10.3572175 17.37,10.7 L18.7,9.44 C18.2464125,8.98358195 17.6913017,8.64092095 17.08,8.44 C16.4602644,8.22046841 15.8074686,8.10885048 15.15,8.11 L15.15,6.77 L14.15,6.77 L14.15,8.06 C13.6751761,8.09461697 13.2091175,8.20606576 12.77,8.39 C12.3399548,8.56679053 11.9440264,8.8172068 11.6,9.13 C11.2639519,9.43537383 10.9890654,9.80188919 10.79,10.21 C10.5836472,10.6438289 10.4809454,11.1196803 10.49,11.6 C10.4772301,12.1064099 10.579818,12.6090904 10.79,13.07 C10.987821,13.4558394 11.26365,13.7963691 11.6,14.07 C11.9520622,14.3641769 12.3465035,14.6035388 12.77,14.78 C13.2199451,14.9711645 13.6848441,15.125016 14.16,15.24 L14.16,19.65 C13.6529715,19.625924 13.1576601,19.4892864 12.71,19.25 C12.2562579,19.0233531 11.8725996,18.677715 11.6,18.25 L10.22,19.49 C10.6771787,20.088855 11.2941932,20.5464163 12,20.81 C12.7033095,21.0734561 13.4489863,21.2056443 14.2,21.2 L14.2,22.49 L15.2,22.49 L15.2,21.19 C15.706385,21.1566917 16.2050866,21.0488644 16.68,20.87 C17.1356924,20.7024598 17.5561955,20.4515144 17.92,20.13 C18.2544546,19.8084133 18.5228201,19.4245487 18.71,19 C18.9182074,18.5281608 19.0173327,18.0154437 19,17.5 C19.0215488,16.9831915 18.9186637,16.468766 18.7,16 C18.4910644,15.6069976 18.1972989,15.2654099 17.84,15 Z M14.18,13.59 C13.9300954,13.5188761 13.6860402,13.4286091 13.45,13.32 C13.2259655,13.2199078 13.017228,13.0886052 12.83,12.93 C12.6519573,12.7766662 12.5058455,12.5897789 12.4,12.38 C12.2886031,12.1495583 12.2337533,11.8958781 12.24,11.64 C12.2177019,11.1274402 12.4139715,10.6294968 12.78,10.27 C13.1688446,9.91297779 13.6571532,9.68277519 14.18,9.61 L14.18,13.59 Z M17.18,18.44 C17.0676824,18.6826017 16.9078665,18.9002233 16.71,19.08 C16.5097369,19.2613571 16.2796997,19.4068218 16.03,19.51 C15.7644182,19.6181749 15.4850708,19.6888532 15.2,19.72 L15.2,15.52 C15.46,15.6066667 15.7233333,15.7033333 15.99,15.81 C16.2371558,15.9069892 16.4694332,16.0382764 16.68,16.2 C16.8746872,16.3538919 17.0376943,16.5440669 17.16,16.76 C17.291943,17.0055617 17.3574391,17.281335 17.35,17.56 C17.3390683,17.8527327 17.2639651,18.1394904 17.13,18.4 L17.18,18.44 Z" id="Shape"></path>
        </g>
    </g>
</svg>