<svg xmlns="http://www.w3.org/2000/svg" xmlns:xlink="http://www.w3.org/1999/xlink" viewBox="0 0 33 27.94"><defs><style>.cls-1{fill:url(#linear-gradient);}.cls-2{fill:url(#linear-gradient-2);}</style><linearGradient id="linear-gradient" x1="33.25" y1="32.76" x2="-317.42" y2="-363.24" gradientUnits="userSpaceOnUse"><stop offset="0" stop-color="#333333"/><stop offset="0.46" stop-color="#333333"/><stop offset="0.85" stop-color="#333333"/></linearGradient><linearGradient id="linear-gradient-2" x1="33.49" y1="32.54" x2="-317.18" y2="-363.46" xlink:href="#linear-gradient"/></defs><title>icon-w2s-house</title><g id="Layer_2" data-name="Layer 2"><g id="blue2"><path class="cls-1" d="M28.4,0H4.6A4.61,4.61,0,0,0,0,4.6v8.09a1.39,1.39,0,0,0,1.39,1.39H2V26.54a1.4,1.4,0,0,0,1.4,1.4H29.62a1.4,1.4,0,0,0,1.4-1.4V14.08h.59A1.39,1.39,0,0,0,33,12.69V4.6A4.61,4.61,0,0,0,28.4,0ZM8.74,26.62V20.68a2.64,2.64,0,0,1,5.28,0v5.94Zm21-.08-.08.08H15.35V20.68a4,4,0,0,0-7.92,0v5.94h-4l-.08-.08V14.08H5.44l.55-.3L11.38,5.4l5.39,8.38.55.3H29.7Zm2-13.85-.07.07H17.69L12.26,4.32a1.08,1.08,0,0,0-1.75,0L5.08,12.76H1.39l-.07-.07V4.6A3.28,3.28,0,0,1,4.6,1.32H28.4A3.28,3.28,0,0,1,31.68,4.6Z"/><path class="cls-2" d="M19.27,24.28h6.78a1.56,1.56,0,0,0,1.56-1.56v-4.8a1.56,1.56,0,0,0-1.56-1.56H19.27a1.56,1.56,0,0,0-1.56,1.56v4.8A1.56,1.56,0,0,0,19.27,24.28ZM19,17.91a.24.24,0,0,1,.24-.24h6.78a.24.24,0,0,1,.24.24v4.8a.24.24,0,0,1-.24.24H19.27a.24.24,0,0,1-.24-.24Z"/></g></g></svg>