<?xml version="1.0" encoding="UTF-8"?>
<svg width="36px" height="32px" viewBox="0 0 36 32" version="1.1" xmlns="http://www.w3.org/2000/svg" xmlns:xlink="http://www.w3.org/1999/xlink">
    <!-- Generator: Sketch 46.2 (44496) - http://www.bohemiancoding.com/sketch -->
    <title>icon-w2s-pig</title>
    <desc>Created with Sketch.</desc>
    <defs></defs>
    <g id="Page-1" stroke="none" stroke-width="1" fill="none" fill-rule="evenodd">
        <g id="icon-w2s-pig" fill-rule="nonzero" fill="#333333">
            <circle id="Oval" cx="9.35" cy="12.37" r="1"></circle>
            <path d="M32.18,31.26 C32.5617768,31.2673153 32.9274637,31.106413 33.18,30.82 C33.4187231,30.5450817 33.5279698,30.1809261 33.48,29.82 L32.73,24.18 C32.7013072,24.0052839 32.7569302,23.8272902 32.88,23.7 C35.0079548,21.0484054 35.9517718,17.6383694 35.49,14.27 C35.49,13.99 35.39,13.71 35.33,13.45 L35.33,13.34 L35.22,13 L35.12,12.71 C34.0949604,9.37564213 31.7242665,6.62070735 28.58,5.11 C27.0317995,4.37140079 25.3791027,3.87559174 23.68,3.64 C23.3937273,1.68409712 21.7403934,0.218642328 19.764269,0.16923922 C17.7881447,0.119836111 16.0636491,1.50084516 15.68,3.44 C14.5763018,3.5495073 13.4850295,3.76039734 12.42,4.07 C12.2718985,4.14326316 12.0981015,4.14326316 11.95,4.07 C10.6834148,3.34985089 9.34217622,2.7697652 7.95,2.34 C7.31299204,2.1489966 6.62424837,2.37194252 6.22,2.9 C5.91970099,3.28902166 5.82310519,3.79800725 5.96,4.27 C6.21,5.15 6.56,6.27 6.75,6.97 C6.84635902,7.16895729 6.78756747,7.4083229 6.61,7.54 C5.24178029,8.83645788 4.19119036,10.4311644 3.54,12.2 C3.49659471,12.3890881 3.32375995,12.5197681 3.13,12.51 C2.45,12.57 1.77,12.65 1.13,12.74 L1,12.74 C0.430283135,12.7967307 -0.00281757078,13.2774725 -1.30262148e-15,13.85 C-1.30262148e-15,15.31 -1.30262148e-15,16.79 -1.30262148e-15,18.37 C-0.00330648516,18.9445738 0.428723217,19.428447 1,19.49 L1.73,19.58 L3.21,19.77 C3.41,19.77 3.44,19.86 3.49,19.98 C4.20641779,21.9032159 5.37616511,23.6252487 6.9,25 C7.00196668,25.122565 7.04898371,25.2816996 7.03,25.44 C7.0395462,25.6937279 7.02951648,25.9478141 7,26.2 L7,26.44 L7,26.6 L6.7,28.82 C6.7,29.15 6.61,29.49 6.57,29.82 C6.5220386,30.1826351 6.63532699,30.5480815 6.88,30.82 C7.13189763,31.1061608 7.49902268,31.2640246 7.88,31.25 L12.37,31.25 C12.5959357,31.2564756 12.8197494,31.2048263 13.02,31.1 L13.26,30.91 C13.4275339,30.7234885 13.5324444,30.4891884 13.56,30.24 C13.62,29.91 13.66,29.6 13.7,29.24 L13.7,28.91 C13.6948053,28.8300843 13.6948053,28.7499157 13.7,28.67 L13.7,28.57 L13.81,28.57 L14.07,28.57 L14.15,28.57 C14.89,28.64 24.6,28.42 25.33,28.36 C26.25,28.29 26.38,28.56 26.46,29.36 C26.46,29.49 26.46,29.64 26.46,29.79 L26.46,30.09 C26.4763733,30.7212337 26.9986532,31.221194 27.63,31.21 L32.15,31.21 L32.18,31.26 Z M19.64,1.4 C20.7176526,1.39189712 21.6937064,2.03482261 22.1117329,3.02812749 C22.5297594,4.02143237 22.3071443,5.16881061 21.5479883,5.93371776 C20.7888324,6.6986249 19.6431669,6.92989299 18.6467354,6.51937494 C17.650304,6.10885689 17.0000305,5.13768304 17,4.06 C16.9999587,2.59869774 18.178739,1.41098723 19.64,1.4 Z M27.84,29.67 C27.84,29.52 27.84,29.39 27.84,29.28 C27.8798133,28.6568409 27.6467385,28.047158 27.2013774,27.6094756 C26.7560163,27.1717932 26.1423725,26.949356 25.52,27 L25.16,27 C24.32,27.08 15.08,27.26 14.26,27.22 C14.0970145,27.2049241 13.9329855,27.2049241 13.77,27.22 L12.65,27.22 L12.31,28.22 C12.2569738,28.3826421 12.2201285,28.5501204 12.2,28.72 L12.2,29.09 C12.2,29.34 12.14,29.58 12.1,29.83 L7.87,29.83 C7.87,29.55 7.94,29.27 7.98,28.99 L8.28,26.75 L8.33,26.39 C8.38716848,26.0964984 8.42060988,25.7988699 8.43,25.5 C8.46300568,24.9453054 8.26375111,24.4018838 7.88,24 C6.51327175,22.7617146 5.46677575,21.2108418 4.83,19.48 C4.62774604,18.8416555 4.05772121,18.3903859 3.39,18.34 L1.93,18.16 L1.41,18.09 C1.41,16.69 1.41,15.38 1.41,14.09 C2,14 2.63,14 3.27,13.9 C3.99457777,13.8493659 4.61772259,13.3682034 4.85,12.68 C5.42256268,11.1015471 6.35365737,9.67751989 7.57,8.52 C8.13311152,8.02042439 8.3351223,7.22822524 8.08,6.52 C7.88,5.85 7.54,4.69 7.29,3.82 C7.26688666,3.77619526 7.26688666,3.72380474 7.29,3.68 C7.3359702,3.6239619 7.40866138,3.59718094 7.48,3.61 C8.76375502,4.00963421 10.0008551,4.54604617 11.17,5.21 C11.6610355,5.48928972 12.2505154,5.53688747 12.78,5.34 C13.7114933,5.06910298 14.6652602,4.88169614 15.63,4.78 C15.7778736,5.62643934 16.1911252,6.40391268 16.81,7 C15.992867,7.09690423 15.1840024,7.25399778 14.39,7.47 C14.0599719,7.56966688 13.8516474,7.8947884 13.899006,8.23626924 C13.9463647,8.57775007 14.2353046,8.8339079 14.58,8.84 L14.77,8.84 C18.0001589,8.12163409 21.3445599,8.08417135 24.59,8.73 C24.9672475,8.8044554 25.3352079,8.56505944 25.42,8.19 C25.5007136,7.81482696 25.2643126,7.44461411 24.89,7.36 C24.0965301,7.19990394 23.2955215,7.07975265 22.49,7 C23.0367277,6.4509969 23.4149473,5.75701601 23.58,5 C25.0880995,5.21328368 26.5549185,5.65501537 27.93,6.31 C30.7503726,7.65977878 32.8758935,10.1298807 33.79,13.12 C33.8094508,13.1879627 33.8328233,13.2547413 33.86,13.32 L33.92,13.61 L33.92,13.72 C33.97,13.96 34.02,14.2 34.06,14.45 C34.4590344,17.4302419 33.620695,20.4439274 31.74,22.79 C31.3843555,23.2155492 31.2213797,23.769667 31.29,24.32 L32,29.86 L27.87,29.86 L27.84,29.67 Z" id="Shape"></path>
        </g>
    </g>
</svg>