<?xml version="1.0" encoding="UTF-8"?>
<svg width="35px" height="26px" viewBox="0 0 35 26" version="1.1" xmlns="http://www.w3.org/2000/svg" xmlns:xlink="http://www.w3.org/1999/xlink">
    <!-- Generator: Sketch 46.2 (44496) - http://www.bohemiancoding.com/sketch -->
    <title>icon-w2s-cc</title>
    <desc>Created with Sketch.</desc>
    <defs></defs>
    <g id="Page-1" stroke="none" stroke-width="1" fill="none" fill-rule="evenodd">
        <g id="icon-w2s-cc" fill-rule="nonzero" fill="#333333">
            <path d="M31.27,0 L2.8,0 C1.2536027,-9.46895252e-17 1.8937905e-16,1.2536027 0,2.8 L0,22.4 C1.8937905e-16,23.9463973 1.2536027,25.2 2.8,25.2 L31.27,25.2 C32.8163973,25.2 34.07,23.9463973 34.07,22.4 L34.07,2.8 C34.07,1.2536027 32.8163973,9.46895252e-17 31.27,0 Z M1.4,6.77 L32.67,6.77 L32.67,10.5 L1.4,10.5 L1.4,6.77 Z M2.8,1.4 L31.27,1.4 C31.6413031,1.4 31.9973986,1.54749958 32.2599495,1.81005051 C32.5225004,2.07260144 32.67,2.42869691 32.67,2.8 L32.67,5.37 L1.4,5.37 L1.4,2.8 C1.4,2.02680135 2.02680135,1.4 2.8,1.4 Z M31.27,23.8 L2.8,23.8 C2.02680135,23.8 1.4,23.1731986 1.4,22.4 L1.4,11.9 L32.67,11.9 L32.67,22.4 C32.67,22.7713031 32.5225004,23.1273986 32.2599495,23.3899495 C31.9973986,23.6525004 31.6413031,23.8 31.27,23.8 L31.27,23.8 Z" id="Shape"></path>
            <path d="M12.6,19.37 L5.37,19.37 C4.98340069,19.37 4.67000004,19.6834007 4.67000004,20.07 C4.67000004,20.4565993 4.98340069,20.77 5.37,20.77 L12.6,20.77 C12.9865993,20.77 13.3,20.4565993 13.3,20.07 C13.3,19.6834007 12.9865993,19.37 12.6,19.37 L12.6,19.37 Z" id="Shape"></path>
        </g>
    </g>
</svg>