<svg xmlns="http://www.w3.org/2000/svg" xmlns:xlink="http://www.w3.org/1999/xlink" viewBox="0 0 36.55 27.06"><defs><style>.cls-1{fill:url(#linear-gradient);}.cls-2{fill:url(#linear-gradient-2);}.cls-3{fill:url(#linear-gradient-3);}.cls-4{fill:url(#linear-gradient-4);}.cls-5{fill:url(#linear-gradient-5);}</style><linearGradient id="linear-gradient" x1="-186.52" y1="-169.24" x2="215.7" y2="193.42" gradientUnits="userSpaceOnUse"><stop offset="0" stop-color="#333333"/><stop offset="0.46" stop-color="#333333"/><stop offset="0.85" stop-color="#333333"/></linearGradient><linearGradient id="linear-gradient-2" x1="-1.69" y1="-13.23" x2="61.59" y2="43.82" xlink:href="#linear-gradient"/><linearGradient id="linear-gradient-3" x1="-26.24" y1="-13.22" x2="37.03" y2="43.82" xlink:href="#linear-gradient"/><linearGradient id="linear-gradient-4" x1="-40.15" y1="-38.33" x2="74.52" y2="65.05" xlink:href="#linear-gradient"/><linearGradient id="linear-gradient-5" x1="-40.15" y1="-36.06" x2="74.52" y2="67.33" xlink:href="#linear-gradient"/></defs><title>icon-w2s-car</title><g id="Layer_2" data-name="Layer 2"><g id="blue2"><path class="cls-1" d="M10.71,0A5.88,5.88,0,0,0,4.88,4.95L4.22,8.89A5.62,5.62,0,0,0,0,14.3V19a4,4,0,0,0,3,3.82V25a2.08,2.08,0,0,0,2.07,2.08H8.7A2.08,2.08,0,0,0,10.78,25V23H25.69v2a2.08,2.08,0,0,0,2.07,2.08h3.65A2.08,2.08,0,0,0,33.49,25V22.86A4,4,0,0,0,36.55,19V14.32a5.64,5.64,0,0,0-4.22-5.42l-.66-3.94A5.88,5.88,0,0,0,25.84,0ZM25.84,1.4a4.49,4.49,0,0,1,4.45,3.78l.59,3.53H23l3.5-3.5a.7.7,0,0,0-1-1L21.15,8.59a.67.67,0,0,0-.08.11H11.82l3.5-3.5a.7.7,0,0,0-1-1L10,8.59a.67.67,0,0,0-.08.11H5.67l.59-3.53A4.49,4.49,0,0,1,10.71,1.4ZM9.38,25a.68.68,0,0,1-.68.68H5.05A.68.68,0,0,1,4.38,25V23h5Zm22,.68H27.77a.68.68,0,0,1-.67-.68V23h5v2A.68.68,0,0,1,31.42,25.66ZM35.15,19a2.55,2.55,0,0,1-2.47,2.54H3.87A2.55,2.55,0,0,1,1.4,19V14.31a4.22,4.22,0,0,1,4.21-4.2H30.94a4.24,4.24,0,0,1,4.21,4.21Z"/><path class="cls-2" d="M31.64,13.21a2.84,2.84,0,1,0-1.09,5.47,2.85,2.85,0,0,0,2.84-2.84A2.8,2.8,0,0,0,31.64,13.21Zm-1.09,4.07a1.45,1.45,0,0,1,0-2.89,1.49,1.49,0,0,1,.57.12A1.4,1.4,0,0,1,32,15.84,1.44,1.44,0,0,1,30.55,17.28Z"/><path class="cls-3" d="M7.08,13.21A2.84,2.84,0,1,0,6,18.68a2.85,2.85,0,0,0,2.84-2.84A2.8,2.8,0,0,0,7.08,13.21ZM6,17.28a1.45,1.45,0,0,1,0-2.89,1.49,1.49,0,0,1,.57.12,1.42,1.42,0,0,1,.89,1.33A1.44,1.44,0,0,1,6,17.28Z"/><path class="cls-4" d="M24.27,13.64h-12a.7.7,0,0,0,0,1.4h12a.7.7,0,0,0,0-1.4Z"/><path class="cls-5" d="M24.27,15.91h-12a.7.7,0,0,0,0,1.4h12a.7.7,0,0,0,0-1.4Z"/></g></g></svg>